<!DOCTYPE svg PUBLIC "-//W3C//DTD SVG 1.1//EN" "http://www.w3.org/Graphics/SVG/1.1/DTD/svg11.dtd">
<!-- Uploaded to: SVG Repo, www.svgrepo.com, Transformed by: SVG Repo Mixer Tools -->
<svg width="800px" height="800px" viewBox="-49.93 0 336.695 336.695" xmlns="http://www.w3.org/2000/svg" fill="#000000">
<g id="SVGRepo_bgCarrier" stroke-width="0"/>
<g id="SVGRepo_tracerCarrier" stroke-linecap="round" stroke-linejoin="round"/>
<g id="SVGRepo_iconCarrier">
<defs>
<style>.a{fill:#ffffff;}.b{fill:#957f6e;}.c{fill:#211715;}.d{fill:#211916;}.e{fill:#5EA7FF;}.f{fill:#f8b1af;}</style>
</defs>
<path class="a" d="M177.85,88.744a8.032,8.032,0,0,1,6.426-1.88,7.585,7.585,0,0,1,5.452,3.625A10.714,10.714,0,0,1,190.85,94.8a32.12,32.12,0,0,1-3.276,17.029,20.4,20.4,0,0,1-5.28,6.929A13.522,13.522,0,0,1,176,121.6l-.813.125-1.647,4.469c-1.923,5.22-13.12,23.917-26.925,29.318a80.561,80.561,0,0,0,1.156,10.224c.7,3.994.481,7.564,6.033,9.569.368.132,6.617,2.57,7.178,2.8l5.516,2.4s4.444,36.148-42.963,36.148-46.815-36.444-46.815-36.444l8.866-3.555c1.069-.365,3.654-1.215,4.021-1.347,5.553-2,5.334-5.575,6.034-9.569a78.765,78.765,0,0,0,1.228-12.556A49.64,49.64,0,0,1,84.4,142.237a54.634,54.634,0,0,1-10.411-20.323l-2.053-.316a13.522,13.522,0,0,1-6.3-2.838,20.4,20.4,0,0,1-5.28-6.929A32.12,32.12,0,0,1,57.082,94.8a10.716,10.716,0,0,1,1.123-4.313,7.581,7.581,0,0,1,5.451-3.625,8.032,8.032,0,0,1,6.426,1.88S53.312,36.8,123.534,38.872,177.85,88.744,177.85,88.744Z"/>
<path class="b" d="M79.824,164.221c7.536-1.146,13.934-4.792,16.775-9.052,0,0,.4-.64.987-1.584A48.969,48.969,0,0,1,84.4,142.237a54.634,54.634,0,0,1-10.412-20.326l-2.052-.313a13.522,13.522,0,0,1-6.3-2.838,16.524,16.524,0,0,1-2.187-2.149,26.73,26.73,0,0,0-2.707,8.946,43.768,43.768,0,0,0-.3,5.964q.012.607.045,1.218c.237,4.349,1.252,8.78,1.467,13.112.219,4.72-1.01,9.367-5.512,10.9-.178.06-.214.636-.209.783a2.06,2.06,0,0,0,.361,1.009,6.974,6.974,0,0,0,2.308,2.023C63.923,163.64,71.648,165.465,79.824,164.221Z"/>
<path class="b" d="M186.323,53.3c-.2-1.184-.411-2.281-.612-3.267C180.127,22.654,152.546.917,123.623,2.506,94.7.917,67.119,22.654,61.535,50.037c-1.513,7.386-1.332,20.022.043,25.918L64.347,86.8a7.973,7.973,0,0,1,5.735,1.943c11.431-7.929,30.82-21.7,40.86-30.338-.825,5.125-3.76,13.842-.064,12.946,15.434-3.574,30.226-10.781,39.17-22.025,1.885,6.639,5,15.608,7.29,19.527,3.238,5.546,12.624,18.025,20.512,19.89a8.032,8.032,0,0,1,6.426-1.88,7.692,7.692,0,0,1,1,.219C189.3,77.774,187.942,62.742,186.323,53.3Z"/>
<path class="c" d="M63.862,75.551a49.4,49.4,0,0,1-.969-9.647,86.377,86.377,0,0,1,.422-11.775,50.281,50.281,0,0,1,6.937-19.921A61.1,61.1,0,0,1,104.246,7.371,55.027,55.027,0,0,1,115.15,5.1c3.775-.375,7.585-.268,11.372-.273a56.041,56.041,0,0,1,21.756,4.462,60.959,60.959,0,0,1,31.411,30.033,64.624,64.624,0,0,1,5.034,19.406c.919,7.419,1.425,15.283-.176,22.644A28.754,28.754,0,0,1,183,86.353a2.415,2.415,0,0,0,1.677,2.953,2.462,2.462,0,0,0,2.952-1.677c3.047-7.3,3-15.861,2.42-23.618-.546-7.275-1.552-14.783-3.993-21.687-5.3-14.992-16.687-27.556-30.695-34.958A63.254,63.254,0,0,0,132.275.315,111.138,111.138,0,0,0,120.362.024a59.809,59.809,0,0,0-12.04,1.32A65.977,65.977,0,0,0,69.1,27.231a58.172,58.172,0,0,0-9.654,21.14,73.618,73.618,0,0,0-.965,23.574,42.331,42.331,0,0,0,.757,4.882c.684,3.011,5.313,1.737,4.629-1.276Z"/>
<path class="c" d="M147.963,50.771c1.118,3.822,2.359,7.612,3.769,11.336a51.08,51.08,0,0,0,3.98,8.7,64.688,64.688,0,0,0,12.294,14.84c2.673,2.332,5.712,4.534,9.206,5.409,3,.749,4.276-3.878,1.276-4.629-5.358-1.341-9.964-6.6-13.457-10.836a50.275,50.275,0,0,1-8.321-13.852c-1.562-4.014-2.91-8.114-4.119-12.247-.865-2.959-5.5-1.7-4.628,1.276Z"/>
<path class="c" d="M148.507,47.434A55.514,55.514,0,0,1,129.5,62.282a81,81,0,0,1-11.7,4.692q-3.144,1-6.35,1.777c-.263.064-.541.116-.8.193-.393.116-.451-.081-.129.067-.144-.067-.325-.195.178.049a2.227,2.227,0,0,1,.595.352.613.613,0,0,1,.23.335c0-.069-.044-.458-.046-.133,0,.365-.01-.229-.011-.3-.024-3.308,1.225-6.827,1.8-10.271a2.422,2.422,0,0,0-4.012-2.335C99.169,65.354,88.227,73.039,77.4,80.7Q73.149,83.7,68.87,86.672a2.464,2.464,0,0,0-.861,3.284,2.422,2.422,0,0,0,3.284.861c11.3-7.843,22.532-15.823,33.4-24.268,2.693-2.094,5.361-4.224,7.951-6.446l-4.012-2.335c-.61,3.673-1.89,7.34-1.969,11.085a4.968,4.968,0,0,0,1.577,4.229c1.751,1.337,3.979.439,5.883-.055A82.014,82.014,0,0,0,140.435,61.4,53.7,53.7,0,0,0,151.9,50.828a2.477,2.477,0,0,0,0-3.394,2.417,2.417,0,0,0-3.394,0Z"/>
<path class="c" d="M61.37,115.4c-3.1,6.137-3.808,13.16-3.064,19.933.4,3.622,1.15,7.222,1.26,10.872.068,2.245-.121,4.884-1.594,6.71-.775.96-1.73,1.163-2.741,1.754-1.643.961-1.66,3.249-.886,4.764,1.362,2.668,4.739,4.112,7.375,5.181a35.74,35.74,0,0,0,19.605,1.778c6.577-1.182,13.479-4.356,17.35-10.009,1.749-2.556-2.408-4.959-4.145-2.423-3.661,5.347-11.313,7.731-17.462,8.167a31.82,31.82,0,0,1-11.188-1.136,24.212,24.212,0,0,1-4.275-1.665,15.7,15.7,0,0,1-2.138-1.251c-.231-.17-.469-.492-.7-.625-.3-.17-.023-.268-.115.057l-.618,1.059.111-.128-1.059.618c7.672-2.774,7.7-11.145,6.8-17.973-1.04-7.83-2.065-15.921,1.638-23.26,1.388-2.751-2.752-5.184-4.145-2.423Z"/>
<path class="c" d="M179.548,90.441a5.516,5.516,0,0,1,7.922.949,9.234,9.234,0,0,1,1.067,4.754,28.767,28.767,0,0,1-.342,6.065c-1.211,7.083-4.944,15.719-12.834,17.075a2.419,2.419,0,0,0-1.676,2.952,2.455,2.455,0,0,0,2.952,1.676c8.171-1.4,13.02-9.12,15.256-16.488A33.937,33.937,0,0,0,193.3,95.473c-.257-3.959-1.454-7.683-5.1-9.744a10.539,10.539,0,0,0-12.043,1.318,2.421,2.421,0,0,0,0,3.394,2.449,2.449,0,0,0,3.4,0Z"/>
<path class="c" d="M171.225,125.554c-.05.133-.1.264-.154.4-.2.524.183-.4,0,0s-.363.794-.556,1.186c-.453.92-.942,1.822-1.45,2.713a76.541,76.541,0,0,1-4.341,6.727,56.229,56.229,0,0,1-12.9,13.344,26.059,26.059,0,0,1-9.137,4.287c-3.01.692-1.736,5.321,1.276,4.629,6.675-1.535,12.445-5.855,17.2-10.627a76.631,76.631,0,0,0,11.581-15.124,40.15,40.15,0,0,0,3.118-6.257,2.421,2.421,0,0,0-1.677-2.953,2.453,2.453,0,0,0-2.952,1.677Z"/>
<path class="c" d="M71.779,87.047a10.5,10.5,0,0,0-10.614-1.98c-3.931,1.551-5.9,4.858-6.395,8.928a32.936,32.936,0,0,0,5.765,22.774,17.222,17.222,0,0,0,10.76,7.143,2.469,2.469,0,0,0,2.952-1.676,2.42,2.42,0,0,0-1.676-2.952c-7.889-1.355-11.623-9.993-12.834-17.075a28.624,28.624,0,0,1-.35-5.841c.059-1.651.133-3.553,1.075-4.978a5.514,5.514,0,0,1,7.923-.949,2.461,2.461,0,0,0,3.394,0,2.421,2.421,0,0,0,0-3.394Z"/>
<path class="c" d="M69.942,114.844c2.923,16.865,12.063,33.37,27.689,41.509a37.5,37.5,0,0,0,13.559,4.056,2.415,2.415,0,0,0,2.4-2.4,2.454,2.454,0,0,0-2.4-2.4c-16.111-1.67-28.665-16.118-33.725-30.634a71.9,71.9,0,0,1-2.9-11.407,2.419,2.419,0,0,0-2.952-1.676,2.455,2.455,0,0,0-1.676,2.952Z"/>
<path class="c" d="M117.037,133.615c.388-.205.778-.4,1.175-.587.077-.036.485-.2.129-.058-.382.15.135-.048.167-.06.287-.1.573-.2.865-.294a17.091,17.091,0,0,1,2.407-.542c-.32.05.19-.023.289-.033.237-.026.474-.047.711-.065.574-.042,1.149-.063,1.724-.067a15.294,15.294,0,0,1,5.181.675c.333.1.657.228.982.352-.55-.21.115.065.306.166s.4.217.59.338.847.616.138.064a2.479,2.479,0,0,0,3.394,0,2.415,2.415,0,0,0,0-3.394c-2.917-2.273-6.62-2.977-10.258-3a21.228,21.228,0,0,0-10.223,2.361,2.4,2.4,0,1,0,2.423,4.145Z"/>
<path class="c" d="M123.752,107.588a48.658,48.658,0,0,1,1.145,5.241l-.086-.638a3.18,3.18,0,0,1,.02.723l.086-.638a1.715,1.715,0,0,1-.08.325l.242-.573a1.368,1.368,0,0,1-.115.209l.375-.486a1.051,1.051,0,0,1-.171.169l.486-.375a3.429,3.429,0,0,1-.415.22l.573-.242a3.046,3.046,0,0,1-.7.2l.638-.086a2.831,2.831,0,0,1-.657,0l.638.086c-.248-.035-.491-.095-.738-.128a2.652,2.652,0,0,0-1.85.241,2.4,2.4,0,0,0-.861,3.284,2.3,2.3,0,0,0,1.435,1.1c.538.073,1.06.21,1.607.234a5.089,5.089,0,0,0,2.337-.551,3.308,3.308,0,0,0,1.853-2.189,5.616,5.616,0,0,0-.025-2.39c-.285-1.689-.676-3.362-1.11-5.018a2.4,2.4,0,0,0-4.628,1.276Z"/>
<path class="c" d="M95.766,92.824c-.876,2.844-.305,9.386,5.083,9.942,7.121-.042,7.5-7.952,5.1-11.671C103.989,88.05,98.218,86.784,95.766,92.824Z"/>
<path class="c" d="M152.791,92.824c.875,2.844.305,9.386-5.083,9.942-7.121-.042-7.5-7.952-5.1-11.671C144.567,88.05,150.338,86.784,152.791,92.824Z"/>
<path class="a" d="M89.188,334.379c1.36-41.755-1.458-116-2.973-148.174a48.806,48.806,0,0,0,37.306,17.4c13.953-.187,28-7.158,37.093-18.662-1.508,31.441-4.42,107.122-3.042,149.437"/>
<path class="d" d="M84.518,187.9a51.647,51.647,0,0,0,29.531,17.248,49.284,49.284,0,0,0,33.313-5.767,51.915,51.915,0,0,0,14.949-12.744,2.475,2.475,0,0,0,0-3.394,2.417,2.417,0,0,0-3.394,0,47.838,47.838,0,0,1-26.668,16.916,43.986,43.986,0,0,1-30.153-4.233,47.947,47.947,0,0,1-14.184-11.42,2.42,2.42,0,0,0-3.394,0,2.451,2.451,0,0,0,0,3.394Z"/>
<path class="e" d="M2.355,333.521c5.056-32.832,9.4-81.105,20.391-110.509a65.344,65.344,0,0,1,4.948-11.092c4.427-7.319,11.517-12.591,18.672-17.279,13.471-8.826,24.176-14.989,39.21-20.946,1.056,18.084,5.206,111.722,3.612,160.684"/>
<path class="e" d="M157.572,334.379c-.314-9.617-.405-20.957-.342-33.11a56.545,56.545,0,0,1-8.859-18.761c-.4-1.517-4.877-14.969-3.492-15.7,1.823-.963,6.909-3.819,13.039-7.684l.024-.932c.968-37.951,2.628-73.987,3.242-84.5,15.035,5.963,25.739,12.127,39.21,20.952,7.155,4.688,14.245,9.96,18.671,17.279a28.583,28.583,0,0,1,4.853,13.334c2.689,26.592-.459,54.337-18.345,73.676a64.876,64.876,0,0,1-10.772,9.19q.065,1.461.127,2.972c.275,6.6.527,13.93.527,22.429"/>
<path class="f" d="M157.829,124.2a24.28,24.28,0,0,0-3.579,11.523c-.172,3.563,0,6.559,1.734,9.5,1.635,2.769,5.58,7.86,10.334,7.766,4.124-.081,9.466-4.6,12.211-7.89,2.229-2.673,4.754-9.951,4.963-13.316a16.369,16.369,0,0,0-3.2-10.435c-1.252-1.692-4.549-6.353-10.064-6.349C164.132,115,160.269,120.444,157.829,124.2Z"/>
<path class="c" d="M177.551,121.654a12.265,12.265,0,0,1,2.363,4.551,21.426,21.426,0,0,1,.479,5.448,26.186,26.186,0,0,1-1.767,7.967,12.936,12.936,0,0,1-4.985,6.915,10.387,10.387,0,0,1-7.434,1.928,14.155,14.155,0,0,1-6.652-2.943,2.416,2.416,0,0,0-3.284.861,2.458,2.458,0,0,0,.861,3.284c5.094,3.823,12.034,4.956,17.732,1.769,6.658-3.724,9.681-11.551,10.285-18.84a19.252,19.252,0,0,0-3.453-13.363,2.478,2.478,0,0,0-3.284-.861,2.416,2.416,0,0,0-.861,3.284Z"/>
<path class="d" d="M45.261,252.247a118.3,118.3,0,0,0,1.768,18.2c.474,2.965.989,5.924,1.468,8.889a56.442,56.442,0,0,1,1.018,8.21c.112,8.939-.471,17.874-.812,26.8-.244,6.387-.393,12.778-.4,19.17,0,3.089,4.8,3.094,4.8,0,.006-10.575.495-21.13.922-31.694.173-4.277.314-8.557.3-12.839-.022-5.635-1.252-11.243-2.174-16.789a124.282,124.282,0,0,1-2.092-19.952c-.01-3.089-4.81-3.1-4.8,0Z"/>
<path class="d" d="M83.185,173.846c.357,6.17.637,12.346.913,18.52q.674,15.082,1.214,30.169.663,18.381,1.134,36.769c.316,12.578.556,25.158.656,37.739.089,11.243.083,22.49-.209,33.729q-.047,1.8-.105,3.607c-.1,3.09,4.7,3.086,4.8,0,.353-10.943.4-21.9.343-32.843-.063-12.5-.277-25.01-.57-37.512q-.437-18.6-1.1-37.2-.546-15.628-1.225-31.251c-.294-6.756-.6-13.512-.971-20.264q-.04-.734-.083-1.465c-.178-3.071-4.979-3.091-4.8,0Z"/>
<path class="d" d="M158.7,173.846c-.357,6.17-.637,12.346-.913,18.52q-.674,15.082-1.213,30.169-.665,18.381-1.135,36.769c-.316,12.578-.556,25.158-.656,37.739-.089,11.243-.083,22.49.209,33.729q.047,1.8.105,3.607c.1,3.081,4.9,3.095,4.8,0-.353-10.943-.4-21.9-.343-32.843.063-12.5.277-25.01.57-37.512q.436-18.6,1.1-37.2.546-15.628,1.225-31.251c.294-6.756.6-13.512.971-20.264q.04-.734.083-1.465c.179-3.086-4.622-3.076-4.8,0Z"/>
<path class="d" d="M84.558,171.532A209.97,209.97,0,0,0,49.31,189.877c-5.633,3.6-11.317,7.259-16.229,11.828a45.958,45.958,0,0,0-11.368,16.823c-2.128,5.356-3.21,11.261-4.5,16.866-1.386,6.024-2.659,12.075-3.863,18.138-2.553,12.856-4.8,25.772-6.927,38.705C4.2,305.77,2.128,319.328.04,332.883a2.478,2.478,0,0,0,1.676,2.953,2.42,2.42,0,0,0,2.953-1.677c3.769-24.476,7.485-48.97,12.132-73.3,2.232-11.68,4.655-23.337,7.638-34.851a42.339,42.339,0,0,1,8.328-17.053c4.091-4.815,9.218-8.56,14.464-12.014,12.264-8.076,24.944-15.323,38.6-20.781a2.474,2.474,0,0,0,1.676-2.952,2.416,2.416,0,0,0-2.952-1.676Z"/>
<path class="d" d="M160.926,176.16a183.833,183.833,0,0,1,23.835,11.584c3.856,2.23,7.64,4.583,11.384,7a80.332,80.332,0,0,1,10.512,7.673,48.52,48.52,0,0,1,8.953,10.782c1.606,2.633,5.759.224,4.144-2.423-4.747-7.779-11.334-13.756-18.916-18.7a238.093,238.093,0,0,0-23.879-13.976c-4.821-2.4-9.757-4.561-14.757-6.559a2.417,2.417,0,0,0-2.953,1.676,2.458,2.458,0,0,0,1.677,2.952Z"/>
<path class="d" d="M192.4,308.126c.381,8.461.652,16.927.657,25.4,0,3.088,4.8,3.093,4.8,0,0-8.471-.276-16.937-.657-25.4-.138-3.077-4.939-3.094-4.8,0Z"/>
<path class="d" d="M94.469,153.319a74.014,74.014,0,0,1-.72,9.131,67.113,67.113,0,0,1-1.114,6.659c-.078.311-.255.907-.293,1a7.782,7.782,0,0,1-.571,1.02,6.517,6.517,0,0,1-1.848,1.435,34.886,34.886,0,0,1-4.976,1.768,2.457,2.457,0,0,0-1.676,2.953,2.423,2.423,0,0,0,2.952,1.676,39.524,39.524,0,0,0,6.274-2.331,9.527,9.527,0,0,0,4.564-5.533,43.872,43.872,0,0,0,1.252-6.932,84.265,84.265,0,0,0,.956-10.849c.06-3.09-4.74-3.089-4.8,0Z"/>
<path class="d" d="M144.141,153.319a98.2,98.2,0,0,0,1.409,13.62c.438,2.736.8,5.394,2.68,7.576,1.693,1.971,4.137,2.788,6.479,3.7,1.88.73,3.767,1.445,5.634,2.205a2.416,2.416,0,0,0,2.953-1.676,2.459,2.459,0,0,0-1.677-2.952c-1.651-.672-3.318-1.3-4.979-1.951s-3.615-1.152-4.835-2.511c-1.171-1.3-1.323-3.826-1.672-5.948a84.109,84.109,0,0,1-1.192-12.061c-.061-3.084-4.862-3.095-4.8,0Z"/>
<path class="a" d="M132.917,154.318c2.859,7.905,1.635,10.83,1.542,15.675-.19,6.506-2.763,11.7-.85,18.309,1.075,3.71,3.2,5.516,4.412,9.182,2.494,7.522,1.079,15.686,1.748,23.582,1.254,14.8,4.151,26.908,8.738,43.724,7.787-4.461,24.2-14.512,33.837-24.029q-10-18.128-18.431-37.065a21.087,21.087,0,0,1-2.1-6.671c-.3-3.529,1.144-6.947,2.557-10.195,3.107-7.145,4.663-11.02,8.278-19.527,1.7-5.835,2.562-17.367,2.208-18.45-2.673-8.2-7.885-15.553-12.959-22.527a9.8,9.8,0,0,0-4.107-3.6,5.551,5.551,0,0,0-5.543,1.511l-.875.947-1.907-2.988a13.862,13.862,0,0,0-4.448-4.332c-2.291-1.134-4.8-.727-5.726.757-1.652,2.64-1.723,4.93.851,7.26a7.233,7.233,0,0,0-5.386-3.447,4.345,4.345,0,0,0-4.121,3.608c-.187,2.01.046,3.2,1.4,6.819-.979-1.526-3.575-2.113-5.267-1.462a3.677,3.677,0,0,0-2.02,3.845c.794,3.185,6.073,14.583,8.175,19.071"/>
<path class="d" d="M164.605,142.713c-4.195-7.322-8.412-14.684-13.07-21.726-2.18-3.3-5.634-6.562-9.894-6.123-4.971.512-7.2,6.437-4.972,10.575,1.465,2.721,5.611.3,4.144-2.423a2.91,2.91,0,0,1,.521-3.144c.831-.712,2.394-.048,3.142.463,2.408,1.65,3.812,4.47,5.319,6.879,3.686,5.9,7.209,11.889,10.665,17.922,1.536,2.679,5.685.264,4.145-2.423Z"/>
<path class="d" d="M155.1,146.167q-4.147-6-7.83-12.3-1.778-3.048-3.437-6.161c-1.061-1.99-1.966-4.012-3.748-5.477a8.418,8.418,0,0,0-6-2.154,6.839,6.839,0,0,0-5.117,3.468c-1.74,3.091-.382,6.922.742,9.955a2.464,2.464,0,0,0,2.952,1.676,2.419,2.419,0,0,0,1.676-2.952,24.784,24.784,0,0,1-1.321-4.259c-.091-.516-.01.251-.028-.292-.008-.227-.019-.451-.016-.678a2.15,2.15,0,0,1,.139-1.027,1.862,1.862,0,0,1,2.593-.89,6.126,6.126,0,0,1,2.993,3.179,187.679,187.679,0,0,0,12.253,20.33,2.461,2.461,0,0,0,3.283.861,2.42,2.42,0,0,0,.861-3.283Z"/>
<path class="d" d="M143.083,148.458c-2.337-4.44-4.509-8.971-6.944-13.359-.991-1.785-1.946-3.907-3.66-5.108a7.465,7.465,0,0,0-5.959-1.027,5.774,5.774,0,0,0-4.018,4.206,6.657,6.657,0,0,0,.332,4.022c1.036,2.969,2.342,5.854,3.616,8.727,1.427,3.22,2.9,6.42,4.395,9.611a2.422,2.422,0,0,0,3.284.861,2.455,2.455,0,0,0,.861-3.284c-2.281-4.872-4.658-9.951-6.594-14.748-.4-.993-.8-1.992-1.125-3.012-.051-.162-.088-.335-.15-.494-.029-.076-.043-.164-.065-.244.091.336-.108.253.032.1a4.351,4.351,0,0,1,.255-.815c.256-.322.4-.329.818-.35a2.534,2.534,0,0,1,1.659.431,7.613,7.613,0,0,1,.924,1.375c.462.771.906,1.552,1.341,2.338,2.4,4.338,4.545,8.81,6.853,13.2,1.439,2.734,5.584.311,4.145-2.423Z"/>
<path class="d" d="M130.6,154.956a25.806,25.806,0,0,1,1.79,9.285c-.059,2.7-.214,5.506-.51,8.19-.429,3.895-1.531,7.72-1.358,11.67.181,4.126,1.7,7.473,3.73,10.976,4.2,7.254,2.605,16.168,2.994,24.162a150.044,150.044,0,0,0,3.05,22.226c1.789,8.875,4.154,17.623,6.551,26.348.818,2.975,5.45,1.712,4.629-1.276-4.071-14.814-7.948-29.709-9.275-45.061-.725-8.388.976-17.4-2.164-25.445-1.346-3.447-3.785-6.252-4.5-9.953-.725-3.768.273-7.58.828-11.3a90.784,90.784,0,0,0,.809-10.148,29.552,29.552,0,0,0-1.95-10.953A2.461,2.461,0,0,0,132.279,152a2.421,2.421,0,0,0-1.676,2.952Z"/>
<path class="d" d="M153.942,125.937a3.309,3.309,0,0,1,1.873-1,2.026,2.026,0,0,1,1.407.15c1.71.775,2.842,2.776,3.892,4.231a114.8,114.8,0,0,1,7.863,12.1,49.138,49.138,0,0,1,2.985,6.42,7.064,7.064,0,0,0,.578,1.656c.178.206,0-.464-.028-.252-.05.41.023.876.014,1.292a77.456,77.456,0,0,1-.8,9.11c-.248,1.764-.542,3.526-.94,5.263a36.2,36.2,0,0,1-2.211,5.92c-1.463,3.47-2.909,6.947-4.388,10.411-1.887,4.422-4.324,8.873-4.76,13.732-.454,5.07,2.369,9.9,4.406,14.35q7.443,16.278,16.062,31.981c1.485,2.71,5.632.291,4.144-2.422q-7.965-14.529-14.948-29.565c-1.144-2.467-2.278-4.94-3.37-7.43a13.694,13.694,0,0,1-1.494-6.914,24.828,24.828,0,0,1,2.3-7.116q1.256-2.89,2.487-5.791c1.665-3.926,3.3-7.864,4.965-11.791a27.778,27.778,0,0,0,1.785-5.75c.376-1.96.655-3.939.9-5.919a57.854,57.854,0,0,0,.668-8.99,13.7,13.7,0,0,0-1.38-4.685,62.2,62.2,0,0,0-3.364-6.9,112.205,112.205,0,0,0-9.378-13.911c-1.548-1.97-3.612-3.712-6.189-3.968a8.1,8.1,0,0,0-6.469,2.4c-2.179,2.195,1.214,5.591,3.394,3.394Z"/>
<path class="e" d="M166.434,251.113c-9.451,7.259-19.028,14.33-21.56,15.694-1.359.732,3.03,30.065,24.114,46.287a13.591,13.591,0,0,0,6.976,3,15.612,15.612,0,0,0,8.72-2.556q.54-.363,1.072-.715c5.374-18.226,14.695-49.847,14.695-49.847-4.547-8.771-10.1-19.882-13.968-27.962C183.461,237.8,175,244.533,166.434,251.113Z"/>
<path class="d" d="M202.524,261.764q-7.19-13.875-13.968-27.962a2.425,2.425,0,0,0-3.77-.485c-4.109,3.773-8.594,7.173-12.98,10.614-5.75,4.51-11.55,8.949-17.465,13.332-2.376,1.76-4.76,3.51-7.187,5.2-.773.538-1.55,1.072-2.342,1.58a5.679,5.679,0,0,0-2.079,1.623c-.739,1.243-.5,2.976-.34,4.339a54.288,54.288,0,0,0,1.526,7.711,77.923,77.923,0,0,0,9.1,21.009,65.655,65.655,0,0,0,8.358,10.772c3.476,3.6,7.818,7.822,12.91,8.776a14.907,14.907,0,0,0,7.985-.877,40.573,40.573,0,0,0,7.31-4.195c4.539-2.895,9.151-5.706,13.2-9.287,7.807-6.912,13.362-16.38,16.974-26.071a100.4,100.4,0,0,0,5.754-30.658,147.109,147.109,0,0,0-.2-15.84c-.282-4.388-.541-8.856-1.917-13.064a30.591,30.591,0,0,0-3.67-7.571c-1.716-2.55-5.876-.15-4.145,2.422a26.182,26.182,0,0,1,3.408,7.133q.422,1.409.7,2.853c.075.388.138.778.2,1.168.021.126.089.645.023.128q.035.27.064.542c.537,4.885.794,9.818.848,14.731a109.1,109.1,0,0,1-3.389,29.646,68.08,68.08,0,0,1-12.655,25.5A51.188,51.188,0,0,1,193.6,304.919c-2.116,1.423-4.286,2.765-6.436,4.136-2.113,1.347-4.158,3.008-6.541,3.85a9.533,9.533,0,0,1-6.9.216,20.609,20.609,0,0,1-5.851-4.046,56.188,56.188,0,0,1-8.475-9.43,71.989,71.989,0,0,1-9.969-20.18,64.053,64.053,0,0,1-1.991-7.907c-.088-.487-.161-.976-.238-1.465-.081-.522.055.464.017.122-.014-.116-.031-.232-.043-.349-.022-.216-.047-.432-.066-.648a17.018,17.018,0,0,0-.039-1.8c-.063-.3-.144.737-.044.352.073-.283.208-.312-.166.343-.232.406-1.2,1.026-.309.5.683-.407,1.343-.853,2-1.3,2.095-1.423,4.144-2.914,6.186-4.411,10.7-7.843,21.368-15.869,31.476-24.465.664-.564,1.323-1.135,1.965-1.724l-3.769-.486q6.748,14.1,13.968,27.962c1.421,2.744,5.565.319,4.145-2.423Z"/>
<path class="d" d="M201.683,129.693c2.216,1.129,4.436,2.215,6.739,3.158a2.393,2.393,0,0,0,2.711-1.1,45,45,0,0,0,3.316-9.77l-3.525,1.434a82.933,82.933,0,0,0,9.668,4.383,2.411,2.411,0,0,0,2.952-1.676c.717-3.5,1.488-7,1.915-10.549l-3.612,2.073c3.757,1.86,7.6,3.549,11.405,5.3a2.471,2.471,0,0,0,3.284-.861,2.42,2.42,0,0,0-.861-3.283c-3.809-1.75-7.648-3.439-11.4-5.3a2.439,2.439,0,0,0-3.611,2.072c-.375,3.119-1.114,6.2-1.744,9.273l2.953-1.676a73.328,73.328,0,0,1-8.522-3.9,2.426,2.426,0,0,0-3.525,1.434,39.7,39.7,0,0,1-2.833,8.624l2.71-1.1c-1.912-.783-3.752-1.737-5.593-2.674-2.747-1.4-5.179,2.741-2.422,4.144Z"/>
<path class="d" d="M202.751,149.93c2.169-.691,4.336-1.37,6.556-1.881l-2.952-1.677a39.46,39.46,0,0,1,1.463,8.935,2.425,2.425,0,0,0,3.038,2.315A78.092,78.092,0,0,1,220.5,155l-3.038-2.314c.133,3.354.347,6.719.2,10.076a2.418,2.418,0,0,0,3.038,2.314c4.008-1.229,8.069-2.275,12.111-3.386,2.974-.818,1.711-5.45-1.276-4.628-4.042,1.111-8.1,2.157-12.111,3.386l3.038,2.314c.143-3.357-.071-6.722-.2-10.076a2.438,2.438,0,0,0-3.038-2.314,78.264,78.264,0,0,0-9.644,2.617l3.038,2.314a45.327,45.327,0,0,0-1.634-10.211,2.45,2.45,0,0,0-2.953-1.676c-2.22.511-4.387,1.19-6.556,1.882-2.932.934-1.679,5.57,1.276,4.628Z"/>
<path class="c" d="M150.435,80.692a13.2,13.2,0,0,0,3.558,3.716,9.175,9.175,0,0,0,1.665.985,10.676,10.676,0,0,0,1.308.517,7.663,7.663,0,0,0,1.355.232,2.4,2.4,0,0,0,1.7-.7,2.4,2.4,0,0,0,0-3.395l-.485-.375a2.4,2.4,0,0,0-1.212-.328c-.042,0-.083-.009-.125-.015l.638.086a5.106,5.106,0,0,1-1.22-.36l.574.242a9.587,9.587,0,0,1-2.022-1.22l.486.376a11.121,11.121,0,0,1-1.912-1.893l.375.486a8.728,8.728,0,0,1-.535-.774,2.507,2.507,0,0,0-1.435-1.1,2.4,2.4,0,0,0-2.71,3.525Z"/>
</g>
</svg>