<!DOCTYPE svg PUBLIC "-//W3C//DTD SVG 1.1//EN" "http://www.w3.org/Graphics/SVG/1.1/DTD/svg11.dtd">
<!-- Uploaded to: SVG Repo, www.svgrepo.com, Transformed by: SVG Repo Mixer Tools -->
<svg version="1.1" id="Layer_1" xmlns="http://www.w3.org/2000/svg" xmlns:xlink="http://www.w3.org/1999/xlink" viewBox="0 0 512 512" xml:space="preserve" width="800px" height="800px" fill="#000000">
<g id="SVGRepo_bgCarrier" stroke-width="0"/>
<g id="SVGRepo_tracerCarrier" stroke-linecap="round" stroke-linejoin="round"/>
<g id="SVGRepo_iconCarrier"> <rect x="33.274" y="50.688" style="fill:#5EA7FF;" width="97.291" height="79.839"/> <rect y="109.88" style="fill:#E9E9E9;" width="512" height="351.432"/> <rect y="285.596" style="fill:#D4D4D4;" width="512" height="175.716"/> <rect y="109.88" style="fill:#818181;" width="163.84" height="351.432"/> <rect y="285.596" style="fill:#5B5B5F;" width="163.84" height="175.716"/> <path style="fill:#595959;" d="M337.921,399.556c-62.838,0-113.96-51.122-113.96-113.96s51.122-113.961,113.96-113.961 s113.96,51.123,113.96,113.961S400.759,399.556,337.921,399.556z"/> <path style="fill:#444242;" d="M337.921,399.556c-62.838,0-113.96-51.122-113.96-113.96h227.92 C451.881,348.434,400.759,399.556,337.921,399.556z"/> <path style="fill:#A8EAEF;" d="M337.921,205.026c-44.426,0-80.569,36.144-80.569,80.57s36.143,80.569,80.569,80.569 s80.569-36.143,80.569-80.569S382.347,205.026,337.921,205.026z"/> <path style="fill:#5EA7FF;" d="M257.352,285.596c0,44.426,36.143,80.569,80.569,80.569s80.569-36.143,80.569-80.569L257.352,285.596 L257.352,285.596z"/> <path style="fill:#F7F7F8;" d="M308.516,278.56h-33.391c0-30.747,25.016-55.762,55.762-55.762v33.391 C318.551,256.189,308.516,266.226,308.516,278.56z"/> </g>
</svg>